<svg width="24" height="24" viewBox="0 0 24 24" fill="none" xmlns="http://www.w3.org/2000/svg">
<path opacity="0.985" fill-rule="evenodd" clip-rule="evenodd" d="M3.11719 1.28906C6.86724 1.28125 10.6172 1.28906 14.3672 1.3125C15.625 2.57031 16.8828 3.82813 18.1406 5.08594C18.1641 6.75774 18.1719 8.42963 18.1641 10.1016C18.039 10.1016 17.9141 10.1016 17.7891 10.1016C17.7891 8.53908 17.7891 6.97655 17.7891 5.41406C16.613 5.43661 15.4411 5.41317 14.2734 5.34375C14.1854 5.27142 14.1151 5.1855 14.0625 5.08594C14.0391 3.94542 14.0312 2.80479 14.0391 1.66406C10.4765 1.65625 6.91402 1.66406 3.35156 1.6875C3.30862 1.70504 3.26955 1.72848 3.23438 1.75781C3.1564 8.53528 3.14078 15.3165 3.1875 22.1016C3.21094 22.1875 3.26563 22.2422 3.35156 22.2656C8.10155 22.2969 12.8516 22.2969 17.6016 22.2656C17.6875 22.2422 17.7422 22.1875 17.7656 22.1016C17.7891 19.8516 17.7969 17.6016 17.7891 15.3516C17.9141 15.3516 18.039 15.3516 18.1641 15.3516C18.1719 17.6797 18.1641 20.0078 18.1406 22.3359C18.0703 22.4687 17.9687 22.5703 17.8359 22.6406C12.8947 22.6873 7.95717 22.6717 3.02344 22.5938C2.93539 22.5214 2.86508 22.4355 2.8125 22.3359C2.78125 15.4297 2.78125 8.52342 2.8125 1.61719C2.89191 1.48324 2.99347 1.37386 3.11719 1.28906ZM14.4141 1.99219C15.4359 2.99055 16.4515 3.99836 17.4609 5.01563C16.4724 5.06142 15.488 5.04577 14.5078 4.96875C14.4785 4.93359 14.455 4.8945 14.4375 4.85156C14.4141 3.89857 14.4062 2.94544 14.4141 1.99219ZM12.5391 17.0391C12.9203 17.3968 13.2953 17.7639 13.6641 18.1406C13.558 18.1707 13.4565 18.2098 13.3594 18.2578C13.0547 17.9531 12.75 17.6484 12.4453 17.3438C12.5001 17.2497 12.5313 17.1481 12.5391 17.0391ZM12.2578 17.8828C12.4727 18.0194 12.6602 18.1912 12.8203 18.3984C12.6136 18.5252 12.3948 18.5721 12.1641 18.5391C12.1485 18.5 12.1328 18.4609 12.1172 18.4219C12.1691 18.2428 12.216 18.063 12.2578 17.8828Z" fill="#28303F"/>
<path opacity="0.995" fill-rule="evenodd" clip-rule="evenodd" d="M4.47656 4.28906C6.58594 4.28906 8.69531 4.28906 10.8047 4.28906C10.8047 4.41406 10.8047 4.53906 10.8047 4.66406C8.69531 4.66406 6.58594 4.66406 4.47656 4.66406C4.47656 4.53906 4.47656 4.41406 4.47656 4.28906Z" fill="#28303F"/>
<path opacity="0.995" fill-rule="evenodd" clip-rule="evenodd" d="M4.47656 6.53906C6.58594 6.53906 8.69531 6.53906 10.8047 6.53906C10.8047 6.66408 10.8047 6.78905 10.8047 6.91406C8.69531 6.91406 6.58594 6.91406 4.47656 6.91406C4.47656 6.78905 4.47656 6.66408 4.47656 6.53906Z" fill="#28303F"/>
<path opacity="0.99" fill-rule="evenodd" clip-rule="evenodd" d="M4.61719 8.03907C8.52347 8.03124 12.4297 8.03907 16.3359 8.06251C16.4687 8.13282 16.5703 8.2344 16.6406 8.36719C16.6719 9.27343 16.6719 10.1797 16.6406 11.0859C16.5703 11.2187 16.4687 11.3203 16.3359 11.3906C12.4297 11.4219 8.52342 11.4219 4.61719 11.3906C4.48438 11.3203 4.38281 11.2187 4.3125 11.0859C4.28125 10.1797 4.28125 9.27343 4.3125 8.36719C4.39191 8.23323 4.49347 8.12387 4.61719 8.03907ZM4.85156 8.41407C8.60161 8.40624 12.3516 8.41407 16.1016 8.43751C16.1875 8.46094 16.2422 8.51565 16.2656 8.60157C16.2969 9.35157 16.2969 10.1016 16.2656 10.8516C16.2422 10.9375 16.1875 10.9922 16.1016 11.0156C12.3516 11.0469 8.60156 11.0469 4.85156 11.0156C4.76564 10.9922 4.71094 10.9375 4.6875 10.8516C4.65625 10.1016 4.65625 9.35157 4.6875 8.60157C4.71984 8.51485 4.7745 8.45232 4.85156 8.41407Z" fill="#28303F"/>
<path opacity="0.872" fill-rule="evenodd" clip-rule="evenodd" d="M19.3828 9.53919C19.6749 9.51289 19.9562 9.55194 20.2266 9.65637C20.5 9.9298 20.7734 10.2033 21.0469 10.4767C21.2156 10.8604 21.2 11.2354 21 11.6017C18.7266 13.8751 16.4531 16.1486 14.1797 18.422C13.6172 18.6095 13.0547 18.797 12.4922 18.9845C11.8906 19.0704 11.6328 18.8126 11.7187 18.2111C11.9062 17.6486 12.0937 17.0861 12.2812 16.5236C14.5547 14.2501 16.8281 11.9767 19.1016 9.70325C19.2059 9.65914 19.2997 9.60444 19.3828 9.53919ZM19.4766 9.96106C19.6551 9.94526 19.8269 9.9687 19.9922 10.0314C20.2515 10.275 20.4937 10.5328 20.7187 10.8048C20.758 10.9827 20.7424 11.1545 20.6719 11.3204C20.5305 11.4696 20.3821 11.6103 20.2266 11.7423C19.7891 11.336 19.3672 10.9142 18.9609 10.4767C19.1194 10.2869 19.2913 10.115 19.4766 9.96106ZM18.5859 10.8048C19.0349 11.1833 19.4647 11.5896 19.875 12.0236C19.8672 12.1564 19.7969 12.2267 19.6641 12.2345C19.2656 11.8361 18.8672 11.4376 18.4687 11.0392C18.4715 10.9485 18.5105 10.8703 18.5859 10.8048ZM18.0703 11.3204C18.2483 11.4749 18.4202 11.639 18.5859 11.8126C16.8125 13.586 15.039 15.3595 13.2656 17.1329C13.1016 16.9689 12.9375 16.8048 12.7734 16.6407C14.5485 14.8735 16.3141 13.1 18.0703 11.3204ZM18.8672 12.1173C19.0452 12.2718 19.2171 12.4359 19.3828 12.6095C17.6094 14.3829 15.8359 16.1564 14.0625 17.9298C13.8984 17.7657 13.7344 17.6017 13.5703 17.4376C15.3454 15.6704 17.111 13.8969 18.8672 12.1173ZM12.5391 17.0392C12.5313 17.1483 12.5001 17.2498 12.4453 17.3439C12.75 17.6486 13.0547 17.9532 13.3594 18.2579C13.4564 18.2099 13.558 18.1708 13.6641 18.1407C13.2952 17.7641 12.9202 17.3969 12.5391 17.0392ZM12.2578 17.8829C12.216 18.0632 12.1691 18.2429 12.1172 18.422C12.1328 18.461 12.1484 18.5001 12.1641 18.5392C12.3948 18.5722 12.6136 18.5253 12.8203 18.3986C12.6602 18.1914 12.4727 18.0195 12.2578 17.8829Z" fill="#28303F"/>
<path opacity="0.995" fill-rule="evenodd" clip-rule="evenodd" d="M4.47656 12.5391C6.58594 12.5391 8.69531 12.5391 10.8047 12.5391C10.8047 12.6641 10.8047 12.789 10.8047 12.9141C8.69531 12.9141 6.58594 12.9141 4.47656 12.9141C4.47656 12.789 4.47656 12.6641 4.47656 12.5391Z" fill="#28303F"/>
<path opacity="0.99" fill-rule="evenodd" clip-rule="evenodd" d="M4.61719 14.0391C7.69533 14.0391 10.7734 14.0391 13.8516 14.0391C13.8516 14.1641 13.8516 14.289 13.8516 14.4141C10.8515 14.4062 7.85152 14.4141 4.85156 14.4375C4.80863 14.455 4.76953 14.4785 4.73438 14.5078C4.65765 15.2848 4.64202 16.066 4.6875 16.8516C4.71094 16.9375 4.76564 16.9922 4.85156 17.0156C7.07025 17.0391 9.28899 17.0469 11.5078 17.0391C11.5078 17.1641 11.5078 17.289 11.5078 17.4141C9.21089 17.4219 6.91402 17.4141 4.61719 17.3906C4.48438 17.3203 4.38281 17.2187 4.3125 17.0859C4.28125 16.1797 4.28125 15.2734 4.3125 14.3672C4.39191 14.2332 4.49347 14.1239 4.61719 14.0391Z" fill="#28303F"/>
<path opacity="0.995" fill-rule="evenodd" clip-rule="evenodd" d="M4.47656 18.5391C6.58594 18.5391 8.69531 18.5391 10.8047 18.5391C10.8047 18.6641 10.8047 18.789 10.8047 18.9141C8.69531 18.9141 6.58594 18.9141 4.47656 18.9141C4.47656 18.789 4.47656 18.6641 4.47656 18.5391Z" fill="#28303F"/>
</svg>
