<svg width="24" height="24" viewBox="0 0 24 24" fill="none" xmlns="http://www.w3.org/2000/svg">
<path opacity="0.93" fill-rule="evenodd" clip-rule="evenodd" d="M11.836 0.257636C12.68 0.148129 13.2425 0.491879 13.5235 1.28889C14.101 1.32791 14.6791 1.35135 15.2578 1.3592C15.9668 1.51804 16.2949 1.96335 16.2422 2.69514C17.2291 2.67385 18.2135 2.69729 19.1953 2.76545C19.7779 3.00406 20.1138 3.43375 20.2031 4.05451C20.2496 10.228 20.234 16.3999 20.1563 22.5701C19.9728 23.1442 19.59 23.5113 19.0078 23.6717C14.3203 23.703 9.63283 23.703 4.94533 23.6717C4.26602 23.4768 3.86758 23.0315 3.75002 22.3358C3.70355 16.1623 3.71918 9.99039 3.7969 3.82014C3.95237 3.32081 4.27268 2.96925 4.75783 2.76545C5.8804 2.697 7.0054 2.67356 8.13283 2.69514C8.08151 1.99271 8.39402 1.5474 9.07033 1.3592C9.66386 1.33577 10.2576 1.32795 10.8516 1.33576C10.9683 0.781656 11.2964 0.422282 11.836 0.257636ZM5.08596 3.21076C6.1016 3.21076 7.11719 3.21076 8.13283 3.21076C8.12505 3.43007 8.13288 3.64882 8.15627 3.86701C8.22658 3.99982 8.32816 4.10139 8.46096 4.1717C10.9297 4.20295 13.3984 4.20295 15.8672 4.1717C15.9936 4.13936 16.0952 4.06905 16.1719 3.96076C16.2347 3.7153 16.2581 3.4653 16.2422 3.21076C17.1174 3.20295 17.9923 3.21077 18.8672 3.2342C19.2622 3.33239 19.52 3.57458 19.6406 3.96076C19.6719 10.117 19.6719 16.2733 19.6406 22.4295C19.5147 22.8367 19.2412 23.0789 18.8203 23.1561C14.2578 23.1873 9.69532 23.1873 5.13283 23.1561C4.78324 23.0792 4.52542 22.8839 4.3594 22.5701C4.28152 16.3696 4.26589 10.1665 4.31252 3.96076C4.44152 3.57389 4.69933 3.32389 5.08596 3.21076Z" fill="#28303F"/>
<path opacity="0.881" fill-rule="evenodd" clip-rule="evenodd" d="M9.35156 6.44531C9.6352 6.49106 9.72112 6.64734 9.60937 6.91406C8.93119 7.51402 8.26716 8.13122 7.61719 8.76562C7.5143 8.82998 7.40489 8.84559 7.28906 8.8125C7.09223 8.58286 6.91256 8.34066 6.75 8.08594C6.65602 7.75828 6.7732 7.62544 7.10156 7.6875C7.23098 7.79738 7.33256 7.93022 7.40625 8.08594C7.43991 8.13052 7.47895 8.1383 7.52344 8.10938C8.115 7.52517 8.72437 6.97045 9.35156 6.44531Z" fill="#28303F"/>
<path opacity="0.863" fill-rule="evenodd" clip-rule="evenodd" d="M11.2266 6.44532C13.1642 6.43749 15.1016 6.44532 17.0391 6.46876C17.2168 6.56499 17.2715 6.7134 17.2031 6.91407C17.168 6.94341 17.1289 6.96685 17.086 6.98438C15.1172 7.01565 13.1485 7.01565 11.1797 6.98438C11.0057 6.90512 10.951 6.77227 11.0156 6.58594C11.0817 6.5259 11.152 6.47902 11.2266 6.44532Z" fill="#28303F"/>
<path opacity="0.935" fill-rule="evenodd" clip-rule="evenodd" d="M11.0859 8.32032C12.836 8.31249 14.586 8.32032 16.3359 8.34376C16.4287 8.4608 16.4521 8.59365 16.4063 8.74219C16.3711 8.77154 16.332 8.79498 16.2891 8.81251C14.5703 8.84377 12.8516 8.84377 11.1328 8.81251C10.9614 8.66541 10.9457 8.50135 11.0859 8.32032Z" fill="#28303F"/>
<path opacity="0.88" fill-rule="evenodd" clip-rule="evenodd" d="M9.25781 12.0236C9.59498 11.993 9.71217 12.1337 9.60937 12.4455C8.94309 13.0946 8.26341 13.7274 7.57031 14.3439C7.45786 14.3773 7.3485 14.3694 7.24219 14.3205C7.07812 14.0861 6.91406 13.8518 6.75 13.6174C6.65602 13.2897 6.7732 13.1569 7.10156 13.2189C7.23155 13.3307 7.33308 13.4635 7.40625 13.6174C7.43991 13.662 7.47895 13.6697 7.52344 13.6408C8.09667 13.0908 8.67483 12.5518 9.25781 12.0236Z" fill="#28303F"/>
<path opacity="0.936" fill-rule="evenodd" clip-rule="evenodd" d="M11.086 12.0234C13.1016 12.0156 15.1173 12.0234 17.1328 12.0469C17.2578 12.2031 17.2578 12.3594 17.1328 12.5156C15.1328 12.5469 13.1328 12.5469 11.1328 12.5156C10.9619 12.3706 10.9463 12.2066 11.086 12.0234Z" fill="#28303F"/>
<path opacity="0.934" fill-rule="evenodd" clip-rule="evenodd" d="M11.1328 13.8516C12.8673 13.8437 14.6016 13.8516 16.3359 13.875C16.4609 14.0312 16.4609 14.1875 16.3359 14.3438C14.6015 14.375 12.8672 14.375 11.1328 14.3438C10.9483 14.1799 10.9483 14.0158 11.1328 13.8516Z" fill="#28303F"/>
<path opacity="0.881" fill-rule="evenodd" clip-rule="evenodd" d="M9.25782 17.5549C9.59499 17.5243 9.71218 17.6649 9.60939 17.9768C8.94381 18.6268 8.26412 19.2596 7.57032 19.8752C7.46096 19.9065 7.35156 19.9065 7.2422 19.8752C7.06074 19.6452 6.89668 19.403 6.75001 19.1486C6.67046 18.7864 6.80326 18.6692 7.14845 18.7971C7.26737 18.9333 7.36895 19.0817 7.45314 19.2424C8.06265 18.6846 8.6642 18.1221 9.25782 17.5549Z" fill="#28303F"/>
<path opacity="0.937" fill-rule="evenodd" clip-rule="evenodd" d="M11.1328 17.5547C13.1173 17.5469 15.1017 17.5547 17.086 17.5781C17.1989 17.6137 17.2458 17.6918 17.2266 17.8125C17.2334 17.9079 17.2022 17.986 17.1328 18.0469C15.1172 18.0781 13.1016 18.0781 11.086 18.0469C10.9519 17.8665 10.9675 17.7024 11.1328 17.5547Z" fill="#28303F"/>
<path opacity="0.935" fill-rule="evenodd" clip-rule="evenodd" d="M11.1328 19.3828C12.8517 19.375 14.5704 19.3828 16.2891 19.4063C16.4021 19.4418 16.4489 19.5199 16.4297 19.6406C16.4366 19.736 16.4053 19.8141 16.336 19.875C14.586 19.9063 12.836 19.9063 11.086 19.875C10.9519 19.6946 10.9675 19.5305 11.1328 19.3828Z" fill="#28303F"/>
</svg>
