<svg width="24" height="24" viewBox="0 0 24 24" fill="none" xmlns="http://www.w3.org/2000/svg">
<path opacity="0.972" fill-rule="evenodd" clip-rule="evenodd" d="M1.99219 3.49219C8.64844 3.48437 15.3047 3.49219 21.9609 3.51563C22.7803 3.72563 23.2568 4.24907 23.3906 5.08594C23.4219 9.67969 23.4219 14.2734 23.3906 18.8672C23.2568 19.704 22.7803 20.2275 21.9609 20.4375C15.3047 20.4688 8.64844 20.4688 1.99219 20.4375C1.17286 20.2275 0.696301 19.704 0.562501 18.8672C0.53125 14.2734 0.53125 9.67969 0.562501 5.08594C0.705104 4.24834 1.18166 3.71709 1.99219 3.49219ZM2.27344 4.71094C8.74219 4.70311 15.2109 4.71094 21.6797 4.73438C21.9016 4.78444 22.0501 4.91724 22.125 5.13281C22.1484 5.85141 22.1563 6.57014 22.1484 7.28906C15.3672 7.28906 8.58595 7.28906 1.80469 7.28906C1.79688 6.57014 1.80469 5.85141 1.82813 5.13281C1.91133 4.91663 2.05977 4.776 2.27344 4.71094ZM1.80469 8.50781C8.58595 8.50781 15.3672 8.50781 22.1484 8.50781C22.1563 11.9453 22.1484 15.3828 22.125 18.8203C22.0501 19.0359 21.9016 19.1687 21.6797 19.2188C15.2109 19.25 8.74219 19.25 2.27344 19.2188C2.05147 19.1687 1.90304 19.0359 1.82813 18.8203C1.80469 15.3828 1.79687 11.9453 1.80469 8.50781Z" fill="#28303F"/>
<path opacity="0.918" fill-rule="evenodd" clip-rule="evenodd" d="M16.5234 5.36717C16.7271 5.35939 16.9302 5.36721 17.1328 5.39061C17.5189 5.52973 17.6674 5.8032 17.5781 6.21092C17.4976 6.44768 17.3336 6.58053 17.0859 6.60936C16.713 6.70076 16.3927 6.61484 16.125 6.35154C15.9267 5.87914 16.0595 5.55101 16.5234 5.36717Z" fill="#28303F"/>
<path opacity="0.923" fill-rule="evenodd" clip-rule="evenodd" d="M19.0078 5.36717C19.2116 5.35939 19.4147 5.36721 19.6172 5.39061C20.0033 5.52973 20.1518 5.8032 20.0625 6.21092C19.982 6.44768 19.818 6.58053 19.5703 6.60936C18.7708 6.7474 18.4505 6.42711 18.6094 5.64842C18.7182 5.51271 18.851 5.41896 19.0078 5.36717Z" fill="#28303F"/>
</svg>
