<svg width="24" height="24" viewBox="0 0 24 24" fill="none" xmlns="http://www.w3.org/2000/svg">
<g clip-path="url(#clip0_187_2286)">
<path opacity="0.961" fill-rule="evenodd" clip-rule="evenodd" d="M12.3516 0.773268C12.4312 0.765759 12.5093 0.773573 12.5859 0.796705C13.2422 1.35921 13.8984 1.92171 14.5547 2.48421C14.6613 2.56694 14.7394 2.66851 14.7891 2.78889C14.0732 3.48415 13.3232 4.14822 12.5391 4.78108C12.4789 4.81314 12.4242 4.80531 12.375 4.75764C12.3594 4.46077 12.3437 4.16389 12.3281 3.86702C12.2147 3.65423 12.0351 3.56048 11.7891 3.58577C8.71641 3.77912 6.36483 5.16972 4.73438 7.75764C4.36064 7.31716 3.8997 7.01247 3.35156 6.84358C5.38598 3.66139 8.30789 2.02077 12.1172 1.92171C12.2188 1.88264 12.2891 1.81233 12.3281 1.71077C12.3516 1.39866 12.3593 1.08616 12.3516 0.773268Z" fill="#28303F"/>
<path opacity="0.961" fill-rule="evenodd" clip-rule="evenodd" d="M17.0859 3.35156C20.2856 5.37375 21.934 8.29561 22.0312 12.1172C22.0703 12.2188 22.1406 12.2891 22.2422 12.3281C22.5543 12.3516 22.8668 12.3593 23.1797 12.3516C23.1872 12.4312 23.1794 12.5093 23.1562 12.5859C22.5938 13.2422 22.0312 13.8984 21.4688 14.5547C21.386 14.6613 21.2844 14.7394 21.1641 14.7891C20.4688 14.0732 19.8047 13.3232 19.1719 12.5391C19.1398 12.4789 19.1476 12.4242 19.1953 12.375C19.4922 12.3594 19.7891 12.3437 20.0859 12.3281C20.2936 12.2221 20.3874 12.0502 20.3672 11.8125C20.1849 8.72761 18.7943 6.3682 16.1953 4.73438C16.6407 4.36648 16.9376 3.90554 17.0859 3.35156Z" fill="#28303F"/>
<path opacity="0.96" fill-rule="evenodd" clip-rule="evenodd" d="M2.69533 9.16407C2.77238 9.15404 2.8427 9.1697 2.90626 9.21095C3.53971 9.96929 4.17252 10.7271 4.8047 11.4844C4.7979 11.5206 4.78229 11.5518 4.75783 11.5781C4.42472 11.5816 4.0966 11.6128 3.77345 11.6719C3.63796 11.7968 3.57547 11.953 3.58595 12.1406C3.76819 15.2255 5.15879 17.5849 7.75783 19.2188C7.31734 19.5925 7.01265 20.0534 6.84376 20.6016C3.66157 18.5671 2.02095 15.6452 1.92189 11.8359C1.88283 11.7344 1.81252 11.6641 1.71095 11.625C1.39884 11.6016 1.08634 11.5938 0.773451 11.6016C0.765942 11.5219 0.773756 11.4438 0.796889 11.3672C1.43953 10.6388 2.07234 9.90446 2.69533 9.16407Z" fill="#28303F"/>
<path opacity="0.961" fill-rule="evenodd" clip-rule="evenodd" d="M19.1953 16.1953C19.3905 16.3827 19.5937 16.5623 19.8047 16.7344C20.0647 16.8722 20.3303 16.9972 20.6016 17.1094C19.0037 19.6596 16.7224 21.2377 13.7578 21.8438C13.0843 21.9267 12.4124 22.0049 11.7422 22.0781C11.6859 22.1205 11.6468 22.1751 11.625 22.2422C11.6016 22.5543 11.5938 22.8668 11.6016 23.1797C11.5219 23.1872 11.4438 23.1794 11.3672 23.1562C10.6406 22.5234 9.91406 21.8906 9.18749 21.2578C9.15374 21.1823 9.16153 21.1119 9.21093 21.0469C9.96928 20.4135 10.7271 19.7806 11.4844 19.1484C11.5206 19.1552 11.5518 19.1708 11.5781 19.1953C11.5816 19.5284 11.6128 19.8565 11.6719 20.1797C11.8038 20.3201 11.9679 20.3826 12.1641 20.3672C14.7506 20.2497 16.8678 19.2028 18.5156 17.2266C18.771 16.901 18.9976 16.5573 19.1953 16.1953Z" fill="#28303F"/>
</g>
<defs>
<clipPath id="clip0_187_2286">
<rect width="24" height="24" fill="white"/>
</clipPath>
</defs>
</svg>
