<svg width="24" height="24" viewBox="0 0 24 24" fill="none" xmlns="http://www.w3.org/2000/svg">
<g clip-path="url(#clip0_187_2255)">
<path opacity="0.954" fill-rule="evenodd" clip-rule="evenodd" d="M4.52344 -0.0234375C7.96092 -0.0234375 11.3985 -0.0234375 14.8359 -0.0234375C16.8344 1.93591 18.8109 3.92028 20.7656 5.92969C20.7969 8.46094 20.7969 10.9922 20.7656 13.5234C20.5449 13.7664 20.3262 13.7664 20.1094 13.5234C20.0397 11.1825 20.0163 8.83875 20.0391 6.49219C18.6483 6.50002 17.2577 6.49219 15.8672 6.46875C15.0862 6.35948 14.5784 5.92983 14.3438 5.17969C14.2769 4.38507 14.2534 3.58819 14.2734 2.78906C11.5527 2.77363 8.83397 2.78925 6.11719 2.83594C6.05522 3.45607 6.05522 4.07325 6.11719 4.6875C8.4922 4.70311 10.8672 4.71877 13.2422 4.73438C13.5547 4.96875 13.5547 5.20312 13.2422 5.4375C10.8203 5.46877 8.39845 5.46877 5.97656 5.4375C5.71345 5.37741 5.51813 5.22895 5.39063 4.99219C5.33799 4.58931 5.31455 4.18306 5.32031 3.77344C5.31455 3.36382 5.33799 2.95756 5.39063 2.55469C5.48095 2.3237 5.64502 2.17526 5.88281 2.10938C8.67966 2.08594 11.4765 2.07812 14.2734 2.08594C14.2734 1.61719 14.2734 1.14844 14.2734 0.679688C11.1484 0.671873 8.02341 0.679688 4.89844 0.703125C4.46864 0.734353 4.16395 0.945291 3.98438 1.33594C3.90647 8.38022 3.89084 15.4271 3.9375 22.4766C4.09055 22.9421 4.41086 23.1999 4.89844 23.25C9.71231 23.2963 14.5248 23.2806 19.3359 23.2031C19.6762 23.0661 19.9028 22.8239 20.0156 22.4766C20.0312 19.9453 20.0469 17.4141 20.0625 14.8828C20.1087 14.6875 20.2337 14.5938 20.4375 14.6016C20.591 14.5922 20.7003 14.6547 20.7656 14.7891C20.7969 17.3985 20.7969 20.0078 20.7656 22.6172C20.5601 23.3149 20.1148 23.768 19.4297 23.9766C14.4609 23.9766 9.49219 23.9766 4.52344 23.9766C3.83711 23.7668 3.3918 23.3136 3.1875 22.6172C3.15625 15.5235 3.15625 8.42967 3.1875 1.33594C3.39263 0.638677 3.83794 0.18555 4.52344 -0.0234375ZM15.0234 1.24219C16.5296 2.72493 18.0296 4.21712 19.5234 5.71875C18.3203 5.75002 17.1172 5.75002 15.9141 5.71875C15.4375 5.61717 15.1485 5.32814 15.0469 4.85156C15.0234 3.64854 15.0156 2.44541 15.0234 1.24219ZM6.07031 7.85156C6.8828 7.85156 7.69533 7.85156 8.50781 7.85156C8.50781 8.66405 8.50781 9.47658 8.50781 10.2891C7.69533 10.2891 6.8828 10.2891 6.07031 10.2891C6.07031 9.47658 6.07031 8.66405 6.07031 7.85156ZM6.07031 18.4453C6.8828 18.4453 7.69533 18.4453 8.50781 18.4453C8.50781 19.2578 8.50781 20.0703 8.50781 20.8828C7.69533 20.8828 6.8828 20.8828 6.07031 20.8828C6.07031 20.0703 6.07031 19.2578 6.07031 18.4453Z" fill="#28303F"/>
<path opacity="0.935" fill-rule="evenodd" clip-rule="evenodd" d="M5.78907 7.10157C6.7892 7.09374 7.78918 7.10157 8.78907 7.12501C9.02007 7.21533 9.16848 7.3794 9.23439 7.61719C9.26565 8.58596 9.26565 9.55468 9.23439 10.5234C9.14387 10.7859 8.9642 10.9499 8.69532 11.0156C7.75782 11.0469 6.82032 11.0469 5.88282 11.0156C5.60889 10.9531 5.42917 10.7891 5.34376 10.5234C5.3125 9.55468 5.3125 8.58596 5.34376 7.61719C5.41871 7.37841 5.56717 7.20652 5.78907 7.10157ZM6.07032 7.85157C6.07032 8.66405 6.07032 9.47658 6.07032 10.2891C6.88281 10.2891 7.69534 10.2891 8.50782 10.2891C8.50782 9.47658 8.50782 8.66405 8.50782 7.85157C7.69534 7.85157 6.88281 7.85157 6.07032 7.85157Z" fill="#28303F"/>
<path opacity="0.931" fill-rule="evenodd" clip-rule="evenodd" d="M10.8047 7.10157C13.2891 7.09374 15.7735 7.10157 18.2578 7.12501C18.4506 7.28949 18.4897 7.48482 18.375 7.71094C18.3201 7.77624 18.2498 7.81533 18.1641 7.82813C15.7422 7.8594 13.3203 7.8594 10.8984 7.82813C10.7104 7.78833 10.6166 7.67115 10.6172 7.47657C10.6304 7.32512 10.6929 7.2001 10.8047 7.10157Z" fill="#28303F"/>
<path opacity="0.931" fill-rule="evenodd" clip-rule="evenodd" d="M10.8047 8.50782C13.2891 8.49999 15.7735 8.50782 18.2578 8.53126C18.4506 8.69574 18.4897 8.89107 18.375 9.11719C18.3201 9.18249 18.2498 9.22158 18.1641 9.23438C15.7422 9.26565 13.3203 9.26565 10.8984 9.23438C10.7104 9.19458 10.6166 9.0774 10.6172 8.88282C10.6304 8.73137 10.6929 8.60635 10.8047 8.50782Z" fill="#28303F"/>
<path opacity="0.935" fill-rule="evenodd" clip-rule="evenodd" d="M5.78907 12.3984C6.7892 12.3906 7.78918 12.3984 8.78907 12.4219C9.02007 12.5122 9.16848 12.6763 9.23439 12.9141C9.26565 13.8828 9.26565 14.8516 9.23439 15.8203C9.14387 16.0827 8.9642 16.2468 8.69532 16.3125C7.75782 16.3438 6.82032 16.3438 5.88282 16.3125C5.60889 16.25 5.42917 16.086 5.34376 15.8203C5.3125 14.8516 5.3125 13.8828 5.34376 12.9141C5.41871 12.6753 5.56717 12.5034 5.78907 12.3984ZM6.07032 13.1484C6.88281 13.1484 7.69534 13.1484 8.50782 13.1484C8.50782 13.9609 8.50782 14.7735 8.50782 15.5859C7.69534 15.5859 6.88281 15.5859 6.07032 15.5859C6.07032 14.7735 6.07032 13.9609 6.07032 13.1484Z" fill="#28303F"/>
<path opacity="0.931" fill-rule="evenodd" clip-rule="evenodd" d="M10.8047 12.3984C13.2891 12.3906 15.7735 12.3984 18.2578 12.4219C18.4506 12.5864 18.4897 12.7817 18.375 13.0078C18.3201 13.0731 18.2498 13.1122 18.1641 13.125C15.7422 13.1563 13.3203 13.1563 10.8984 13.125C10.7104 13.0852 10.6166 12.968 10.6172 12.7734C10.6304 12.622 10.6929 12.497 10.8047 12.3984Z" fill="#28303F"/>
<path opacity="0.931" fill-rule="evenodd" clip-rule="evenodd" d="M10.8047 13.8047C13.2891 13.7969 15.7735 13.8047 18.2578 13.8281C18.4506 13.9926 18.4897 14.1879 18.375 14.4141C18.3201 14.4794 18.2498 14.5185 18.1641 14.5313C15.7422 14.5625 13.3203 14.5625 10.8984 14.5313C10.7104 14.4915 10.6166 14.3743 10.6172 14.1797C10.6304 14.0282 10.6929 13.9032 10.8047 13.8047Z" fill="#28303F"/>
<path opacity="0.935" fill-rule="evenodd" clip-rule="evenodd" d="M5.78907 17.6953C6.7892 17.6875 7.78918 17.6953 8.78907 17.7188C9.02007 17.8091 9.16848 17.9731 9.23439 18.2109C9.26565 19.1797 9.26565 20.1484 9.23439 21.1172C9.14387 21.3796 8.9642 21.5437 8.69532 21.6094C7.75782 21.6406 6.82032 21.6406 5.88282 21.6094C5.60889 21.5469 5.42917 21.3828 5.34376 21.1172C5.3125 20.1484 5.3125 19.1797 5.34376 18.2109C5.41871 17.9722 5.56717 17.8003 5.78907 17.6953ZM6.07032 18.4453C6.07032 19.2578 6.07032 20.0703 6.07032 20.8828C6.88281 20.8828 7.69534 20.8828 8.50782 20.8828C8.50782 20.0703 8.50782 19.2578 8.50782 18.4453C7.69534 18.4453 6.88281 18.4453 6.07032 18.4453Z" fill="#28303F"/>
<path opacity="0.931" fill-rule="evenodd" clip-rule="evenodd" d="M10.8047 17.6953C13.2891 17.6875 15.7735 17.6953 18.2578 17.7188C18.4506 17.8832 18.4897 18.0786 18.375 18.3047C18.3201 18.37 18.2498 18.4091 18.1641 18.4219C15.7422 18.4531 13.3203 18.4531 10.8984 18.4219C10.7104 18.3821 10.6166 18.2649 10.6172 18.0703C10.6304 17.9189 10.6929 17.7939 10.8047 17.6953Z" fill="#28303F"/>
<path opacity="0.931" fill-rule="evenodd" clip-rule="evenodd" d="M10.8047 19.1016C13.2891 19.0937 15.7735 19.1016 18.2578 19.125C18.4506 19.2895 18.4897 19.4848 18.375 19.7109C18.3201 19.7762 18.2498 19.8153 18.1641 19.8281C15.7422 19.8594 13.3203 19.8594 10.8984 19.8281C10.7104 19.7883 10.6166 19.6711 10.6172 19.4766C10.6304 19.3251 10.6929 19.2001 10.8047 19.1016Z" fill="#28303F"/>
</g>
<defs>
<clipPath id="clip0_187_2255">
<rect width="24" height="24" fill="white"/>
</clipPath>
</defs>
</svg>
