<svg width="222" height="48" viewBox="0 0 222 48" fill="none" xmlns="http://www.w3.org/2000/svg">
<rect width="57" height="48" rx="8" fill="#2563EB"/>
<path d="M17.828 37L9.332 11.8H12.068L20.024 35.524H18.656L26.864 11.8H29.312L37.412 35.524H36.116L44.144 11.8H46.7L38.204 37H35.396L27.656 14.5H28.376L20.6 37H17.828Z" fill="white"/>
<path d="M74.828 37L66.332 11.8H69.068L77.024 35.524H75.656L83.864 11.8H86.312L94.412 35.524H93.116L101.144 11.8H103.7L95.204 37H92.396L84.656 14.5H85.376L77.6 37H74.828ZM118.447 37V32.824L118.339 32.14V25.156C118.339 23.548 117.883 22.312 116.971 21.448C116.083 20.584 114.751 20.152 112.975 20.152C111.751 20.152 110.587 20.356 109.483 20.764C108.379 21.172 107.443 21.712 106.675 22.384L105.523 20.476C106.483 19.66 107.635 19.036 108.979 18.604C110.323 18.148 111.739 17.92 113.227 17.92C115.675 17.92 117.559 18.532 118.879 19.756C120.223 20.956 120.895 22.792 120.895 25.264V37H118.447ZM111.931 37.18C110.515 37.18 109.279 36.952 108.223 36.496C107.191 36.016 106.399 35.368 105.847 34.552C105.295 33.712 105.019 32.752 105.019 31.672C105.019 30.688 105.247 29.8 105.703 29.008C106.183 28.192 106.951 27.544 108.007 27.064C109.087 26.56 110.527 26.308 112.327 26.308H118.843V28.216H112.399C110.575 28.216 109.303 28.54 108.583 29.188C107.887 29.836 107.539 30.64 107.539 31.6C107.539 32.68 107.959 33.544 108.799 34.192C109.639 34.84 110.815 35.164 112.327 35.164C113.767 35.164 115.003 34.84 116.035 34.192C117.091 33.52 117.859 32.56 118.339 31.312L118.915 33.076C118.435 34.324 117.595 35.32 116.395 36.064C115.219 36.808 113.731 37.18 111.931 37.18ZM127.837 37V18.1H130.285V23.248L130.033 22.348C130.561 20.908 131.449 19.816 132.697 19.072C133.945 18.304 135.493 17.92 137.341 17.92V20.404C137.245 20.404 137.149 20.404 137.053 20.404C136.957 20.38 136.861 20.368 136.765 20.368C134.773 20.368 133.213 20.98 132.085 22.204C130.957 23.404 130.393 25.12 130.393 27.352V37H127.837ZM149.858 37.18C147.89 37.18 146.162 36.772 144.674 35.956C143.186 35.116 142.022 33.976 141.182 32.536C140.342 31.072 139.922 29.404 139.922 27.532C139.922 25.66 140.318 24.004 141.11 22.564C141.926 21.124 143.03 19.996 144.422 19.18C145.838 18.34 147.422 17.92 149.174 17.92C150.95 17.92 152.522 18.328 153.89 19.144C155.282 19.936 156.374 21.064 157.166 22.528C157.958 23.968 158.354 25.636 158.354 27.532C158.354 27.652 158.342 27.784 158.318 27.928C158.318 28.048 158.318 28.18 158.318 28.324H141.866V26.416H156.95L155.942 27.172C155.942 25.804 155.642 24.592 155.042 23.536C154.466 22.456 153.674 21.616 152.666 21.016C151.658 20.416 150.494 20.116 149.174 20.116C147.878 20.116 146.714 20.416 145.682 21.016C144.65 21.616 143.846 22.456 143.27 23.536C142.694 24.616 142.406 25.852 142.406 27.244V27.64C142.406 29.08 142.718 30.352 143.342 31.456C143.99 32.536 144.878 33.388 146.006 34.012C147.158 34.612 148.466 34.912 149.93 34.912C151.082 34.912 152.15 34.708 153.134 34.3C154.142 33.892 155.006 33.268 155.726 32.428L157.166 34.084C156.326 35.092 155.27 35.86 153.998 36.388C152.75 36.916 151.37 37.18 149.858 37.18ZM164.096 37V11.8H173.528C175.664 11.8 177.5 12.148 179.036 12.844C180.572 13.516 181.748 14.5 182.564 15.796C183.404 17.068 183.824 18.616 183.824 20.44C183.824 22.216 183.404 23.752 182.564 25.048C181.748 26.32 180.572 27.304 179.036 28C177.5 28.696 175.664 29.044 173.528 29.044H165.572L166.76 27.784V37H164.096ZM166.76 28L165.572 26.704H173.456C175.976 26.704 177.884 26.164 179.18 25.084C180.5 23.98 181.16 22.432 181.16 20.44C181.16 18.424 180.5 16.864 179.18 15.76C177.884 14.656 175.976 14.104 173.456 14.104H165.572L166.76 12.844V28ZM188.587 37V18.1H191.035V23.248L190.783 22.348C191.311 20.908 192.199 19.816 193.447 19.072C194.695 18.304 196.243 17.92 198.091 17.92V20.404C197.995 20.404 197.899 20.404 197.803 20.404C197.707 20.38 197.611 20.368 197.515 20.368C195.523 20.368 193.963 20.98 192.835 22.204C191.707 23.404 191.143 25.12 191.143 27.352V37H188.587ZM210.284 37.18C208.46 37.18 206.816 36.772 205.352 35.956C203.912 35.116 202.772 33.976 201.932 32.536C201.092 31.072 200.672 29.404 200.672 27.532C200.672 25.636 201.092 23.968 201.932 22.528C202.772 21.088 203.912 19.96 205.352 19.144C206.792 18.328 208.436 17.92 210.284 17.92C212.156 17.92 213.812 18.328 215.252 19.144C216.716 19.96 217.856 21.088 218.672 22.528C219.512 23.968 219.932 25.636 219.932 27.532C219.932 29.404 219.512 31.072 218.672 32.536C217.856 33.976 216.716 35.116 215.252 35.956C213.788 36.772 212.132 37.18 210.284 37.18ZM210.284 34.912C211.652 34.912 212.864 34.612 213.92 34.012C214.976 33.388 215.804 32.524 216.404 31.42C217.028 30.292 217.34 28.996 217.34 27.532C217.34 26.044 217.028 24.748 216.404 23.644C215.804 22.54 214.976 21.688 213.92 21.088C212.864 20.464 211.664 20.152 210.32 20.152C208.976 20.152 207.776 20.464 206.72 21.088C205.664 21.688 204.824 22.54 204.2 23.644C203.576 24.748 203.264 26.044 203.264 27.532C203.264 28.996 203.576 30.292 204.2 31.42C204.824 32.524 205.664 33.388 206.72 34.012C207.776 34.612 208.964 34.912 210.284 34.912Z" fill="#0F172A"/>
</svg>
