<svg width="24" height="24" viewBox="0 0 24 24" fill="none" xmlns="http://www.w3.org/2000/svg">
<g clip-path="url(#clip0_187_2386)">
<path opacity="0.952" fill-rule="evenodd" clip-rule="evenodd" d="M10.9453 -0.0234375C11.6328 -0.0234375 12.3203 -0.0234375 13.0078 -0.0234375C17.7096 0.561661 21.0612 2.99916 23.0625 7.28906C23.5452 8.4697 23.8499 9.68845 23.9766 10.9453C23.9766 11.6328 23.9766 12.3203 23.9766 13.0078C23.3915 17.7096 20.954 21.0612 16.6641 23.0625C15.4834 23.5452 14.2647 23.8499 13.0078 23.9766C12.3203 23.9766 11.6328 23.9766 10.9453 23.9766C6.24352 23.3915 2.89194 20.954 0.890625 16.6641C0.407968 15.4834 0.103281 14.2647 -0.0234375 13.0078C-0.0234375 12.3203 -0.0234375 11.6328 -0.0234375 10.9453C0.561661 6.24352 2.99916 2.89194 7.28906 0.890625C8.4697 0.407968 9.68845 0.103281 10.9453 -0.0234375ZM11.1797 1.10156C15.7384 0.977794 19.1837 2.85279 21.5156 6.72656C23.1016 9.78923 23.2734 12.9299 22.0312 16.1484C20.4783 19.5914 17.8611 21.7555 14.1797 22.6406C9.87356 23.3462 6.30323 22.0572 3.46875 18.7734C0.963169 15.4062 0.447542 11.7499 1.92188 7.80469C3.47485 4.3617 6.09206 2.19764 9.77344 1.3125C10.2474 1.23033 10.7161 1.16002 11.1797 1.10156Z" fill="#28303F"/>
<path opacity="0.965" fill-rule="evenodd" clip-rule="evenodd" d="M12.7734 5.97664C13.6555 5.84333 14.2883 6.17145 14.6719 6.96102C14.8269 7.90053 14.4441 8.50212 13.5234 8.7657C12.6707 8.88242 12.0535 8.56212 11.6719 7.80477C11.5105 6.87748 11.8778 6.26811 12.7734 5.97664Z" fill="#28303F"/>
<path opacity="0.968" fill-rule="evenodd" clip-rule="evenodd" d="M11.6016 9.96096C13.2604 9.95567 13.9401 10.7682 13.6406 12.3985C13.4314 13.1668 13.2126 13.9324 12.9844 14.6953C12.8419 15.1793 12.7403 15.6715 12.6797 16.1719C12.6967 16.5166 12.8686 16.7354 13.1953 16.8282C13.6643 16.8942 14.1174 16.8395 14.5547 16.6641C14.5582 16.9094 14.5113 17.1516 14.4141 17.3907C13.6539 17.7748 12.8492 17.9858 12 18.0235C11.2464 18.0373 10.6526 17.7404 10.2188 17.1328C10.0615 16.7416 10.0146 16.3353 10.0781 15.9141C10.119 15.663 10.1658 15.4129 10.2188 15.1641C10.5897 14.0592 10.8788 12.9342 11.0859 11.7891C11.058 11.4568 10.8862 11.2459 10.5703 11.1563C10.1115 11.0913 9.67397 11.1616 9.25781 11.3672C9.2422 11.3516 9.22655 11.3359 9.21094 11.3203C9.28823 11.0737 9.35072 10.8237 9.39844 10.5703C9.79266 10.4519 10.1833 10.3191 10.5703 10.1719C10.9147 10.0699 11.2584 9.99959 11.6016 9.96096Z" fill="#28303F"/>
</g>
<defs>
<clipPath id="clip0_187_2386">
<rect width="24" height="24" fill="white"/>
</clipPath>
</defs>
</svg>
