<svg width="144" height="48" viewBox="0 0 144 48" fill="none" xmlns="http://www.w3.org/2000/svg">
<mask id="mask0_34_210" style="mask-type:alpha" maskUnits="userSpaceOnUse" x="0" y="0" width="48" height="48">
<rect width="48" height="48" fill="#D9D9D9"/>
</mask>
<g mask="url(#mask0_34_210)">
<path d="M48.0315 17.3617C48.0315 25.3708 34.652 32.4492 21.3841 32.4492C8.12083 32.4492 0 15.1977 0 7.18854C0 -0.815945 12.0998 -1.04863 25.2839 1.28756C38.3703 3.60513 48.0315 9.35254 48.0315 17.3617Z" fill="#BDE7EA"/>
<path d="M35.6648 45.4263C36.6142 43.5695 37.1494 41.4613 37.1494 39.2322C37.1494 35.6813 35.7998 32.4516 33.5799 30.027C32.8353 29.2126 31.9884 28.4819 31.0623 27.8676C32.2164 27.4721 33.2961 26.9229 34.2873 26.2481C34.458 26.3971 34.6255 26.5506 34.7899 26.7089C37.3635 29.194 38.9644 32.675 38.9644 36.533C38.9644 39.9302 37.7218 43.0343 35.6648 45.4263Z" fill="url(#paint0_linear_34_210)"/>
<path d="M38.3826 25.6879C37.5636 25.8694 36.6933 25.8648 35.8231 25.6367C34.4455 25.2784 33.324 24.4268 32.6027 23.3192C32.3607 22.9469 32.1652 22.5466 32.0209 22.1231C31.7464 22.5327 31.4252 22.8957 31.0623 23.2121C31.1026 23.2928 31.146 23.3735 31.1926 23.4541C31.8999 24.706 33.0913 25.6833 34.5898 26.0695C35.9115 26.4139 37.2471 26.2464 38.3826 25.6879Z" fill="url(#paint1_linear_34_210)"/>
<path d="M14.0122 7.62319C14.5613 7.41842 15.157 7.30673 15.7806 7.30673C17.7864 7.30673 19.5223 8.46552 20.3599 10.1455C20.3832 10.1828 20.3972 10.2153 20.4158 10.2526C20.4158 10.2572 20.4158 10.2572 20.4158 10.2572C20.5507 10.5411 20.816 11.2857 20.8532 11.3462C20.8532 11.3431 20.8532 11.3431 20.8532 11.3462C20.8936 11.4114 20.937 11.475 20.9835 11.537C21.0115 11.5742 21.044 11.6161 21.072 11.658C21.1976 11.8162 21.3372 11.9652 21.4908 12.1001C21.3186 12.4957 21.0999 12.8726 20.8393 13.2124C20.7974 13.4776 20.7369 13.7382 20.6531 13.9895C21.1232 16.0139 22.0493 17.8615 23.3104 19.4251C24.5669 20.9842 26.1539 22.2593 27.9689 23.1435C29.002 23.6461 30.1096 24.0231 31.2684 24.2511C31.2715 24.2511 31.273 24.2511 31.273 24.2511C32.134 24.4233 33.0275 24.5117 33.9396 24.5117C34.3259 24.5117 34.7075 24.4978 35.0891 24.4652C35.601 24.4233 36.1036 24.3535 36.5969 24.2558C36.0943 24.8002 35.5452 25.3029 34.9588 25.7543C34.7354 25.9265 34.5121 26.0893 34.284 26.2476C33.2928 26.9224 32.2131 27.4715 31.059 27.8671C29.6628 28.3511 28.1643 28.6117 26.6006 28.6117C23.8037 28.6117 21.2023 27.7694 19.0383 26.3267C18.5419 25.9978 18.0718 25.6395 17.6282 25.2517C16.4647 24.2371 15.4781 23.0272 14.7149 21.6776C13.8726 20.193 13.3002 18.5316 13.0721 16.7632C13.0411 16.546 13.0178 16.3273 13.0023 16.107C12.9651 15.7347 12.9511 15.3484 12.9511 14.9668C12.9511 14.7341 12.9558 14.5061 12.9698 14.2781C12.9791 14.0407 12.9977 13.808 13.0209 13.5754V13.5707C13.0442 13.3659 13.0675 13.1612 13.1001 12.9564C13.1094 12.8819 13.1233 12.8075 13.1326 12.7377C13.1373 12.733 13.1373 12.7284 13.1373 12.7284C13.1931 12.5329 13.2304 12.3282 13.249 12.1234C13.2583 12.0179 13.2629 11.9124 13.2629 11.8069C13.2629 10.9134 12.9232 10.099 12.3601 9.494C12.3694 8.10718 13.3839 7.89776 14.0122 7.62319Z" fill="url(#paint2_linear_34_210)"/>
<path d="M35.1082 23.7254C35.1082 23.9674 35.1035 24.2047 35.0896 24.442C34.7126 24.4746 34.3263 24.4932 33.9401 24.4932C33.0279 24.4932 32.1344 24.4002 31.2735 24.228C31.2735 24.228 31.2719 24.228 31.2688 24.228C30.11 23.9999 29.0024 23.623 27.9693 23.1204C26.1543 22.2362 24.5674 20.961 23.3109 19.402C22.0497 17.843 20.5605 16.042 20.6536 13.9664C20.6629 13.7011 20.7373 13.4359 20.8397 13.1892C21.0119 12.7983 21.3191 12.4772 21.4912 12.077C22.0916 12.6122 22.8874 12.9333 23.753 12.9333C24.4417 12.9333 25.0886 12.7285 25.6238 12.3748C26.0985 12.063 26.4847 11.6395 26.7547 11.1416C31.6597 13.2125 35.1082 18.0664 35.1082 23.7254Z" fill="url(#paint3_linear_34_210)"/>
<path d="M16.6838 8.52585C16.6838 8.93538 16.3487 9.27046 15.9392 9.27046C15.5297 9.27046 15.1946 8.93538 15.1946 8.52585C15.1946 8.11167 15.5297 7.78125 15.9392 7.78125C16.3487 7.78125 16.6838 8.11167 16.6838 8.52585Z" fill="white"/>
<path d="M16.4508 8.53024C16.4508 8.81412 16.2228 9.04216 15.9389 9.04216C15.655 9.04216 15.427 8.81412 15.427 8.53024C15.427 8.24636 15.655 8.01367 15.9389 8.01367C16.2228 8.01367 16.4508 8.24636 16.4508 8.53024Z" fill="#30332F"/>
<path d="M26.7547 11.1659C26.4848 11.6639 26.0985 12.092 25.6238 12.3992C25.0886 12.7529 24.4417 12.9576 23.753 12.9576C22.8874 12.9576 22.1149 12.6086 21.4913 12.1013C20.7141 11.4638 20.7373 11.1008 20.4162 10.2584C20.4162 10.2584 20.4162 10.2584 20.4162 10.2538C20.3976 10.2166 20.3837 10.184 20.3604 10.1467C19.5227 8.46674 17.7869 7.30795 15.7811 7.30795C15.1575 7.30795 14.5618 7.41964 14.0127 7.6244C14.008 7.6244 14.008 7.6244 14.0033 7.6244C13.9785 7.6151 13.9537 7.60734 13.9289 7.60114C13.873 7.58562 13.8156 7.57011 13.7567 7.5546C13.7381 7.54839 13.7179 7.54374 13.6962 7.54064C13.631 7.52667 13.5612 7.51271 13.4961 7.49875C13.4744 7.49875 13.4542 7.4972 13.4356 7.4941C13.3611 7.48014 13.2867 7.47548 13.2122 7.46618C13.1238 7.46152 13.04 7.45687 12.9516 7.45687C12.7561 7.45687 12.556 7.47548 12.3699 7.50806C13.0447 6.36323 14.1523 5.50229 15.4693 5.15325C15.4739 5.15325 15.4786 5.15325 15.4786 5.15325C15.944 5.06018 16.4233 5.00433 16.912 4.99037C16.9213 4.98572 16.9306 4.98572 16.9399 4.99037C17.0469 4.99037 17.1586 4.99968 17.2656 5.00899C17.2749 4.99968 17.2843 4.99192 17.2936 4.98572C18.7037 5.00433 20.03 5.36733 21.1934 5.99093C21.5099 6.16157 21.8139 6.35082 22.1056 6.55869C23.511 7.5546 24.6 8.96934 25.1957 10.6214C25.7293 10.7704 26.249 10.9518 26.7547 11.1659Z" fill="url(#paint4_linear_34_210)"/>
<path d="M14.5338 8.94412C14.5198 8.93946 14.5105 8.93946 14.4966 8.93946C14.45 8.91154 14.4019 8.88517 14.3523 8.86035C14.2546 8.8045 14.1568 8.75797 14.0544 8.71143C13.8031 8.59353 13.5425 8.49735 13.2726 8.42289C13.1749 8.39497 13.0772 8.3717 12.9794 8.34843C12.635 8.27397 12.2767 8.23674 11.9091 8.23674C11.8284 8.23674 11.7446 8.23985 11.6578 8.24605C11.574 8.24605 11.4902 8.25536 11.4018 8.26467C11.332 8.26932 11.2622 8.27863 11.1924 8.28793C10.9876 8.31586 10.7875 8.35619 10.592 8.40893C11.0714 7.94821 11.6857 7.62245 12.3698 7.51076C12.5606 7.47818 12.756 7.45956 12.9515 7.45956C13.0399 7.45956 13.1283 7.45956 13.2168 7.46887C13.2866 7.47352 13.361 7.48283 13.4355 7.49214L13.496 7.50145C13.5658 7.51076 13.631 7.52472 13.6961 7.53868C13.7178 7.54488 13.738 7.54954 13.7566 7.55264C13.8156 7.56815 13.8729 7.58522 13.9288 7.60383C13.9567 7.61004 13.9831 7.61624 14.0079 7.62245C14.0079 7.6271 14.0079 7.6271 14.0079 7.6271C14.087 8.11109 14.2685 8.55785 14.5338 8.94412Z" fill="#0A0A0A"/>
<path d="M14.3523 8.86088C14.4019 8.8857 14.45 8.91207 14.4966 8.93999C14.4345 8.93689 14.3709 8.93534 14.3057 8.93534C13.5984 8.93534 12.9422 9.16338 12.407 9.55429C12.2721 9.40072 12.0719 9.20991 11.9091 9.08891C11.8687 9.05479 11.8268 9.02376 11.7834 8.99584C11.4111 8.73988 11.0481 8.49789 10.592 8.40946C10.741 8.36293 10.9597 8.31639 11.1924 8.28847C11.2622 8.27916 11.332 8.26985 11.4018 8.2652C11.4902 8.25589 11.574 8.24658 11.6578 8.24658C11.7446 8.24038 11.8284 8.23727 11.9091 8.23727C12.2767 8.23727 12.635 8.27451 12.9794 8.34897C13.0772 8.37223 13.1749 8.3955 13.2726 8.42342C13.5425 8.49789 13.8031 8.59406 14.0544 8.71196C14.1568 8.7585 14.2546 8.80504 14.3523 8.86088Z" fill="#30332F"/>
</g>
<path d="M56.8252 31.5526V16.412C56.8252 15.2326 57.7578 14.3 58.9372 14.3H64.6698C69.2504 14.3 72.0207 17.0154 72.0207 20.9377V20.9926C72.0207 25.436 68.5647 27.74 64.2584 27.74H61.0492V31.5526C61.0492 32.732 60.1167 33.6646 58.9372 33.6646C57.7578 33.6646 56.8252 32.732 56.8252 31.5526ZM61.0492 23.9823H64.3955C66.5075 23.9823 67.7418 22.7206 67.7418 21.0749V21.02C67.7418 19.1274 66.4252 18.1126 64.3132 18.1126H61.0492V23.9823ZM75.8872 31.5526V16.2474C75.8872 15.068 76.8198 14.1354 77.9992 14.1354C79.1787 14.1354 80.1112 15.068 80.1112 16.2474V31.5526C80.1112 32.732 79.1787 33.6646 77.9992 33.6646C76.8198 33.6646 75.8872 32.732 75.8872 31.5526ZM85.4581 31.5526V16.412C85.4581 15.2326 86.3907 14.3 87.5701 14.3H93.3027C97.8832 14.3 100.654 17.0154 100.654 20.9377V20.9926C100.654 25.436 97.1975 27.74 92.8912 27.74H89.6821V31.5526C89.6821 32.732 88.7495 33.6646 87.5701 33.6646C86.3907 33.6646 85.4581 32.732 85.4581 31.5526ZM89.6821 23.9823H93.0284C95.1404 23.9823 96.3747 22.7206 96.3747 21.0749V21.02C96.3747 19.1274 95.0581 18.1126 92.9461 18.1126H89.6821V23.9823ZM104.328 31.5526V16.412C104.328 15.2326 105.261 14.3 106.44 14.3H113.105C115.546 14.3 117.439 14.9857 118.701 16.2474C119.77 17.3171 120.346 18.8257 120.346 20.636V20.6909C120.346 23.708 118.838 25.5731 116.506 26.5331L119.441 30.0989C119.853 30.62 120.127 31.0589 120.127 31.7171C120.127 32.8966 119.14 33.6646 118.125 33.6646C117.165 33.6646 116.534 33.1983 116.04 32.5674L111.926 27.356H108.552V31.5526C108.552 32.732 107.62 33.6646 106.44 33.6646C105.261 33.6646 104.328 32.732 104.328 31.5526ZM108.552 23.6257H112.831C114.888 23.6257 116.068 22.5286 116.068 20.9103V20.8554C116.068 19.0451 114.806 18.1126 112.749 18.1126H108.552V23.6257ZM123.382 31.6897C123.382 31.388 123.491 31.0863 123.628 30.7846L130.321 15.6714C130.787 14.6291 131.638 13.9983 132.79 13.9983H133.036C134.188 13.9983 135.011 14.6291 135.478 15.6714L142.17 30.7846C142.307 31.0863 142.39 31.3606 142.39 31.6349C142.39 32.7594 141.512 33.6646 140.387 33.6646C139.4 33.6646 138.742 33.0886 138.358 32.2109L137.068 29.1937H128.62L127.276 32.348C126.92 33.1709 126.207 33.6646 125.329 33.6646C124.232 33.6646 123.382 32.7869 123.382 31.6897ZM130.184 25.4634H135.505L132.844 19.1274L130.184 25.4634Z" fill="#202220"/>
<defs>
<linearGradient id="paint0_linear_34_210" x1="31.0623" y1="26.2481" x2="38.9644" y2="26.2481" gradientUnits="userSpaceOnUse">
<stop offset="0.015" stop-color="#0A0A0A"/>
<stop offset="0.931" stop-color="#30332F"/>
</linearGradient>
<linearGradient id="paint1_linear_34_210" x1="31.0623" y1="22.1231" x2="38.3826" y2="22.1231" gradientUnits="userSpaceOnUse">
<stop offset="0.015" stop-color="#0A0A0A"/>
<stop offset="0.931" stop-color="#30332F"/>
</linearGradient>
<linearGradient id="paint2_linear_34_210" x1="28.0759" y1="-1.21897" x2="43.8056" y2="22.0499" gradientUnits="userSpaceOnUse">
<stop offset="0.015" stop-color="#FF7800"/>
<stop offset="0.53" stop-color="#FFBD00"/>
</linearGradient>
<linearGradient id="paint3_linear_34_210" x1="20.6489" y1="11.1416" x2="35.1082" y2="11.1416" gradientUnits="userSpaceOnUse">
<stop offset="0.015" stop-color="#0A0A0A"/>
<stop offset="0.931" stop-color="#30332F"/>
</linearGradient>
<linearGradient id="paint4_linear_34_210" x1="12.8073" y1="5.30217" x2="27.9833" y2="4.25042" gradientUnits="userSpaceOnUse">
<stop offset="0.01" stop-color="#FF1217"/>
<stop offset="0.206" stop-color="#F61F88"/>
<stop offset="0.941" stop-color="#FE7100"/>
</linearGradient>
</defs>
</svg>
