<svg width="24" height="24" viewBox="0 0 24 24" fill="none" xmlns="http://www.w3.org/2000/svg">
<path opacity="0.941" fill-rule="evenodd" clip-rule="evenodd" d="M12.3516 0.304684C12.8987 0.296878 13.4455 0.30469 13.9922 0.328121C14.7843 0.471742 15.2843 0.932682 15.4922 1.71093C16.273 1.74998 17.0542 1.77341 17.836 1.78125C17.9219 1.80468 17.9766 1.85937 18 1.94531C18.0234 2.22613 18.0312 2.50738 18.0235 2.78906C19.1642 2.78125 20.3048 2.78906 21.4453 2.8125C21.8706 2.9409 22.1597 3.21433 22.3125 3.63281C22.3668 6.82673 22.3902 10.022 22.3828 13.2187C22.3902 16.4155 22.3668 19.6108 22.3125 22.8047C22.1491 23.2652 21.8288 23.5387 21.3516 23.625C15.8828 23.6563 10.4141 23.6563 4.94533 23.625C4.42725 23.5288 4.10694 23.2241 3.98439 22.7109C3.96877 22.2422 3.95314 21.7734 3.93752 21.3047C2.18954 19.9955 1.40829 18.2455 1.59377 16.0547C1.83116 14.4069 2.62803 13.1101 3.98439 12.1641C3.98491 9.28636 4.01616 6.41137 4.07814 3.53906C4.23406 3.16441 4.50749 2.92222 4.89845 2.8125C6.03897 2.78906 7.17958 2.78125 8.32033 2.78906C8.31255 2.50738 8.32038 2.22613 8.34377 1.94531C8.3613 1.90236 8.38474 1.8633 8.41408 1.82812C9.22277 1.77467 10.0353 1.73561 10.8516 1.71093C11.0689 0.930826 11.5689 0.462076 12.3516 0.304684ZM12.3516 1.10156C12.9143 1.09375 13.4768 1.10156 14.0391 1.125C14.5632 1.3677 14.821 1.78177 14.8125 2.36718C14.8548 2.4235 14.9095 2.46257 14.9766 2.48437C15.742 2.5078 16.5077 2.51562 17.2735 2.50781C17.2735 2.96094 17.2735 3.41406 17.2735 3.86718C14.5391 3.86718 11.8047 3.86718 9.07033 3.86718C9.07033 3.41406 9.07033 2.96094 9.07033 2.50781C9.83613 2.51562 10.6017 2.5078 11.3672 2.48437C11.4688 2.44531 11.5391 2.375 11.5781 2.27343C11.5801 1.70537 11.8379 1.31474 12.3516 1.10156ZM13.1016 2.17968C13.4102 2.23443 13.4962 2.40631 13.3594 2.69531C13.1165 2.83566 12.9681 2.76534 12.9141 2.48437C12.9245 2.34552 12.987 2.24396 13.1016 2.17968ZM5.08595 3.53906C6.16408 3.53906 7.2422 3.53906 8.32033 3.53906C8.31255 3.82074 8.32038 4.10199 8.34377 4.38281C8.38281 4.48437 8.45313 4.55469 8.5547 4.59375C11.6328 4.625 14.7109 4.625 17.7891 4.59375C17.8728 4.55697 17.9431 4.50228 18 4.42968C18.0235 4.13322 18.0312 3.83634 18.0235 3.53906C19.0861 3.53125 20.1486 3.53906 21.211 3.5625C21.4166 3.59626 21.5494 3.71345 21.6094 3.91406C21.6407 10.1328 21.6407 16.3515 21.6094 22.5703C21.5725 22.7148 21.4866 22.8164 21.3516 22.875C15.8634 22.9217 10.379 22.9061 4.89845 22.8281C4.81328 22.7437 4.75858 22.6422 4.73439 22.5234C4.69553 22.272 4.70331 22.022 4.75783 21.7734C6.74725 22.6087 8.63786 22.429 10.4297 21.2344C11.1546 20.6891 11.7171 20.0094 12.1172 19.1953C14.824 19.1715 17.5272 19.1324 20.2266 19.0781C20.3754 18.8306 20.3441 18.6119 20.1328 18.4219C17.5702 18.414 15.0077 18.3906 12.4453 18.3516C12.6506 17.7117 12.7288 17.0555 12.6797 16.3828C15.1641 16.3906 17.6485 16.3828 20.1328 16.3594C20.2742 16.2877 20.3367 16.1705 20.3203 16.0078C20.3307 15.8535 20.2682 15.7364 20.1328 15.6562C17.617 15.6484 15.1015 15.625 12.586 15.5859C12.4271 14.8823 12.1458 14.2339 11.7422 13.6406C14.5391 13.625 17.3359 13.6094 20.1328 13.5937C20.2188 13.5703 20.2735 13.5156 20.2969 13.4297C20.3645 13.2088 20.3099 13.0291 20.1328 12.8906C17.1172 12.875 14.1016 12.8594 11.086 12.8437C9.21892 11.1471 7.10955 10.7643 4.75783 11.6953C4.70313 9.07045 4.69534 6.44545 4.73439 3.82031C4.80667 3.66129 4.92386 3.56754 5.08595 3.53906ZM6.96095 11.9297C9.45034 12.0291 11.0675 13.2634 11.8125 15.6328C12.1753 17.6385 11.5737 19.287 10.0078 20.5781C8.2592 21.7381 6.4623 21.8162 4.6172 20.8125C2.89385 19.6544 2.15166 18.0372 2.39064 15.9609C2.78281 14.0062 3.93124 12.7328 5.83595 12.1406C6.21288 12.0441 6.58788 11.9738 6.96095 11.9297Z" fill="#28303F"/>
<path opacity="0.933" fill-rule="evenodd" clip-rule="evenodd" d="M12.8672 1.42991C13.4957 1.31811 13.9254 1.55248 14.1563 2.13304C14.2846 3.22342 13.808 3.66873 12.7266 3.46898C12.1171 3.04639 11.9843 2.50733 12.3281 1.85179C12.4773 1.66252 12.657 1.52189 12.8672 1.42991ZM13.1016 2.17991C12.987 2.24419 12.9245 2.34575 12.9141 2.4846C12.9681 2.76558 13.1165 2.83589 13.3594 2.69554C13.4962 2.40654 13.4102 2.23466 13.1016 2.17991Z" fill="#28303F"/>
<path opacity="0.894" fill-rule="evenodd" clip-rule="evenodd" d="M6.35156 7.24219C6.86742 7.23437 7.38304 7.24219 7.89843 7.26563C8.20898 7.37949 8.29495 7.59043 8.15625 7.89844C8.11392 7.95474 8.05926 7.99383 7.99218 8.01563C7.41407 8.0469 6.83592 8.0469 6.25781 8.01563C6.0165 7.85935 5.96184 7.64841 6.09375 7.38282C6.18168 7.33083 6.26761 7.28396 6.35156 7.24219Z" fill="#28303F"/>
<path opacity="0.911" fill-rule="evenodd" clip-rule="evenodd" d="M10.1484 7.24219C13.4297 7.23437 16.711 7.24219 19.9922 7.26563C20.3186 7.37016 20.4045 7.5811 20.25 7.89844C20.2077 7.95474 20.153 7.99383 20.0859 8.01563C16.7422 8.0469 13.3984 8.0469 10.0547 8.01563C9.83325 7.90149 9.76294 7.72177 9.84375 7.47657C9.92836 7.36754 10.0299 7.28944 10.1484 7.24219Z" fill="#28303F"/>
<path opacity="0.893" fill-rule="evenodd" clip-rule="evenodd" d="M6.30466 10.0547C6.85174 10.0469 7.39863 10.0547 7.94528 10.0781C8.17192 10.1622 8.25785 10.3262 8.2031 10.5703C8.16405 10.7031 8.07808 10.7891 7.94528 10.8281C7.39839 10.8594 6.85155 10.8594 6.30466 10.8281C6.02144 10.6951 5.95113 10.4842 6.09372 10.1953C6.15977 10.1353 6.23008 10.0884 6.30466 10.0547Z" fill="#28303F"/>
<path opacity="0.91" fill-rule="evenodd" clip-rule="evenodd" d="M10.0547 10.0547C13.3829 10.0469 16.711 10.0547 20.0391 10.0781C20.2344 10.1243 20.3281 10.2493 20.3203 10.4531C20.3281 10.6569 20.2344 10.782 20.0391 10.8281C16.7266 10.8594 13.4141 10.8594 10.1016 10.8281C9.89913 10.7755 9.80538 10.6427 9.82033 10.4297C9.82249 10.2559 9.90063 10.131 10.0547 10.0547Z" fill="#28303F"/>
<path opacity="0.904" fill-rule="evenodd" clip-rule="evenodd" d="M9.49219 14.6953C9.8835 14.7665 10.0007 14.9852 9.84375 15.3516C8.72527 16.4857 7.59244 17.6029 6.44532 18.7031C6.31393 18.7385 6.18891 18.7229 6.07032 18.6563C5.51565 18.1016 4.96093 17.5469 4.40625 16.9922C4.28838 16.5945 4.43682 16.3991 4.85157 16.4063C4.91405 16.4375 4.97658 16.4687 5.03907 16.5C5.45382 16.9225 5.87569 17.3366 6.30469 17.7422C7.28063 16.7897 8.24935 15.8288 9.21094 14.8594C9.3015 14.791 9.39525 14.7363 9.49219 14.6953Z" fill="#28303F"/>
</svg>
