<svg width="24" height="24" viewBox="0 0 24 24" fill="none" xmlns="http://www.w3.org/2000/svg">
<path opacity="0.936" fill-rule="evenodd" clip-rule="evenodd" d="M8.22656 1.66406C9.02587 1.86018 9.80709 2.11799 10.5703 2.4375C10.7405 2.58046 10.7952 2.76015 10.7344 2.97656C10.4936 3.65206 10.2436 4.32393 9.98437 4.99219C9.72145 5.18981 9.47147 5.1742 9.23437 4.94531C9.2062 4.86858 9.18277 4.79048 9.16406 4.71094C9.25486 4.39163 9.36422 4.07914 9.49219 3.77344C7.49611 4.35561 5.9258 5.5275 4.78125 7.28906C4.12077 8.376 3.68327 9.54787 3.46875 10.8047C3.07265 11.0611 2.79921 10.9674 2.64844 10.5234C3.08963 7.77206 4.44901 5.60803 6.72656 4.03125C7.48022 3.55286 8.27709 3.16223 9.11719 2.85938C8.82033 2.75 8.52342 2.64062 8.22656 2.53125C7.96069 2.40152 7.87472 2.19059 7.96875 1.89844C8.04984 1.80929 8.13577 1.73116 8.22656 1.66406Z" fill="#28303F"/>
<path opacity="0.934" fill-rule="evenodd" clip-rule="evenodd" d="M13.3359 2.60156C16.2913 3.03558 18.5491 4.51996 20.1094 7.05469C20.5628 7.85222 20.9066 8.69597 21.1406 9.58594C21.338 9.21445 21.5645 8.86289 21.8203 8.53125C22.3142 8.4157 22.5252 8.61103 22.4531 9.11719C22.088 9.77719 21.7052 10.4257 21.3047 11.0625C21.1546 11.132 20.9983 11.1477 20.8359 11.1094C20.1753 10.7452 19.5269 10.3624 18.8906 9.96094C18.7395 9.47147 18.9192 9.24487 19.4297 9.28125C19.6913 9.42375 19.9492 9.5722 20.2031 9.72656C19.6347 7.48542 18.3613 5.75883 16.3828 4.54687C15.3986 3.98961 14.3517 3.59899 13.2422 3.375C13.0387 3.08877 13.0699 2.83095 13.3359 2.60156Z" fill="#28303F"/>
<path opacity="0.942" fill-rule="evenodd" clip-rule="evenodd" d="M11.0859 5.97657C11.6799 5.96874 12.2737 5.97657 12.8672 6.00001C13.1804 6.09437 13.4069 6.28969 13.5469 6.58594C13.6037 6.89471 13.635 7.20723 13.6406 7.52344C13.6889 7.68165 13.7904 7.73635 13.9453 7.68751C14.1016 7.53127 14.2578 7.37499 14.4141 7.21876C14.8672 6.93751 15.3203 6.93751 15.7734 7.21876C16.1094 7.55471 16.4453 7.89062 16.7813 8.22657C17.0622 8.66227 17.0622 9.0998 16.7813 9.53907C16.625 9.6953 16.4687 9.85158 16.3125 10.0078C16.2591 10.1498 16.2982 10.2513 16.4297 10.3125C16.7459 10.3182 17.0584 10.3494 17.3672 10.4063C17.6919 10.5279 17.9029 10.7544 18 11.0859C18.0313 11.6797 18.0313 12.2734 18 12.8672C17.9029 13.1987 17.6919 13.4253 17.3672 13.5469C17.0584 13.6037 16.7459 13.635 16.4297 13.6406C16.2982 13.7018 16.2591 13.8034 16.3125 13.9453C16.6245 14.1784 16.8432 14.4752 16.9688 14.8359C17.0318 15.1588 16.9692 15.4557 16.7813 15.7266C16.4453 16.0625 16.1094 16.3984 15.7734 16.7344C15.3203 17.0156 14.8672 17.0156 14.4141 16.7344C14.2578 16.5781 14.1016 16.4219 13.9453 16.2656C13.7904 16.2168 13.6889 16.2715 13.6406 16.4297C13.625 16.6953 13.6094 16.9609 13.5938 17.2266C13.4766 17.5937 13.2344 17.8359 12.8672 17.9531C12.2734 17.9844 11.6797 17.9844 11.0859 17.9531C10.7728 17.8588 10.5462 17.6634 10.4063 17.3672C10.3491 17.0428 10.3179 16.7146 10.3125 16.3828C10.241 16.2616 10.1394 16.2225 10.0078 16.2656C9.77584 16.5762 9.47893 16.7949 9.1172 16.9219C8.7789 16.9877 8.46639 16.9252 8.1797 16.7344C7.84375 16.3984 7.50784 16.0625 7.17189 15.7266C6.93292 15.3525 6.90165 14.9619 7.07814 14.5547C7.24839 14.3375 7.43589 14.1344 7.64064 13.9453C7.69407 13.8034 7.65498 13.7018 7.52345 13.6406C7.20723 13.635 6.89471 13.6037 6.58595 13.5469C6.26293 13.4239 6.052 13.1974 5.95314 12.8672C5.92187 12.2734 5.92187 11.6797 5.95314 11.0859C6.05026 10.7544 6.2612 10.5279 6.58595 10.4063C6.89471 10.3494 7.20723 10.3182 7.52345 10.3125C7.65498 10.2513 7.69407 10.1498 7.64064 10.0078C7.33004 9.77583 7.11132 9.47893 6.98439 9.11719C6.92139 8.79258 6.98392 8.49568 7.17189 8.22657C7.50784 7.89062 7.84375 7.55471 8.1797 7.21876C8.63284 6.93751 9.08593 6.93751 9.53907 7.21876C9.69531 7.37499 9.85159 7.53127 10.0078 7.68751C10.1394 7.73063 10.241 7.69158 10.3125 7.57032C10.1661 6.82444 10.4239 6.29316 11.0859 5.97657ZM11.4141 6.82032C11.8398 6.80091 12.2617 6.82435 12.6797 6.89063C12.7006 7.26132 12.7553 7.62854 12.8438 7.99219C13.2795 8.61479 13.8341 8.74758 14.5078 8.39063C14.6762 8.19066 14.8715 8.0266 15.0938 7.89844C15.4829 8.17032 15.8188 8.49844 16.1016 8.88282C15.948 9.10683 15.7683 9.30994 15.5625 9.49219C15.2083 10.2264 15.388 10.7811 16.1016 11.1563C16.4111 11.2108 16.7236 11.242 17.0391 11.25C17.0625 11.2734 17.0859 11.2969 17.1094 11.3203C17.1407 11.7578 17.1407 12.1953 17.1094 12.6328C17.0859 12.6563 17.0625 12.6797 17.0391 12.7031C16.6723 12.7016 16.3129 12.7485 15.9609 12.8438C15.3702 13.2647 15.2374 13.8038 15.5625 14.4609C15.7683 14.6432 15.948 14.8463 16.1016 15.0703C15.8188 15.4547 15.4829 15.7828 15.0938 16.0547C14.8715 15.9265 14.6762 15.7625 14.5078 15.5625C13.8297 15.195 13.2751 15.3278 12.8438 15.9609C12.7485 16.3129 12.7016 16.6723 12.7031 17.0391C12.6531 17.0715 12.5984 17.0949 12.5391 17.1094C12.1136 17.1522 11.6918 17.1366 11.2734 17.0625C11.2355 16.8086 11.2121 16.5508 11.2031 16.2891C10.9529 15.4652 10.4138 15.1917 9.58595 15.4688C9.38439 15.6234 9.19689 15.7952 9.02345 15.9844C8.91409 16.0781 8.80468 16.0781 8.69532 15.9844C8.3882 15.7008 8.10695 15.3961 7.85157 15.0703C8.00514 14.8463 8.18481 14.6432 8.39064 14.4609C8.71571 13.8038 8.58292 13.2647 7.9922 12.8438C7.64021 12.7485 7.28087 12.7016 6.91407 12.7031C6.89064 12.6797 6.8672 12.6563 6.84376 12.6328C6.8125 12.1953 6.8125 11.7578 6.84376 11.3203C6.8672 11.2969 6.89064 11.2734 6.91407 11.25C7.16406 11.2344 7.41409 11.2187 7.66407 11.2031C8.434 10.9682 8.70742 10.4604 8.48439 9.67969C8.332 9.43337 8.1445 9.2146 7.92189 9.02344C7.82814 8.92969 7.82814 8.83594 7.92189 8.74219C8.20698 8.42565 8.51945 8.1444 8.85939 7.89844C9.08162 8.0266 9.2769 8.19066 9.44532 8.39063C9.9632 8.69251 10.4554 8.65346 10.9219 8.27344C11.0784 8.1008 11.1722 7.89769 11.2031 7.66407C11.2187 7.41408 11.2344 7.16405 11.25 6.91407C11.311 6.88665 11.3657 6.85543 11.4141 6.82032ZM11.6484 10.5234C12.6962 10.4609 13.3055 10.9453 13.4766 11.9766C13.4119 12.7243 13.0213 13.2009 12.3047 13.4063C11.4298 13.5277 10.8438 13.1761 10.5469 12.3516C10.4115 11.4344 10.7786 10.825 11.6484 10.5234Z" fill="#28303F"/>
<path opacity="0.937" fill-rule="evenodd" clip-rule="evenodd" d="M11.5547 9.63292C13.2181 9.54653 14.1556 10.3278 14.3672 11.9767C14.1568 13.6324 13.2193 14.4058 11.5547 14.297C10.1017 13.9057 9.46885 12.9603 9.65626 11.461C9.93259 10.4737 10.5654 9.86429 11.5547 9.63292ZM11.6484 10.5235C10.7786 10.8251 10.4115 11.4345 10.5469 12.3517C10.8438 13.1762 11.4298 13.5278 12.3047 13.4064C13.0213 13.201 13.4119 12.7244 13.4766 11.9767C13.3055 10.9454 12.6962 10.461 11.6484 10.5235Z" fill="#28303F"/>
<path opacity="0.934" fill-rule="evenodd" clip-rule="evenodd" d="M2.92966 12.3046C3.09271 12.2898 3.24896 12.3132 3.39841 12.3749C3.96873 12.789 4.53904 13.203 5.10935 13.6171C5.28518 13.9332 5.21487 14.1754 4.89841 14.3437C4.80466 14.3749 4.71091 14.3749 4.61716 14.3437C4.32405 14.1541 4.03499 13.9588 3.74998 13.7577C4.32852 16.1092 5.66445 17.8983 7.75779 19.1249C8.57477 19.5639 9.43418 19.892 10.3359 20.1093C10.5371 20.3756 10.5215 20.6257 10.289 20.8593C10.2123 20.8875 10.1342 20.9109 10.0547 20.9296C6.97254 20.2133 4.74598 18.4321 3.37498 15.5858C3.13413 15.0415 2.94663 14.479 2.81248 13.8983C2.61966 14.2005 2.40872 14.4896 2.17966 14.7655C1.63617 14.9409 1.40961 14.7456 1.49998 14.1796C1.96665 13.5412 2.44322 12.9161 2.92966 12.3046Z" fill="#28303F"/>
<path opacity="0.934" fill-rule="evenodd" clip-rule="evenodd" d="M20.7422 12.4455C20.9878 12.4201 21.1674 12.5138 21.2812 12.7267C21.0534 15.1276 20.0456 17.1355 18.2578 18.7501C17.1193 19.7337 15.8224 20.4368 14.3672 20.8595C14.6406 21.1017 14.9141 21.3439 15.1875 21.5861C15.3438 21.9611 15.2266 22.1955 14.8359 22.2892C14.7386 22.2802 14.6448 22.2568 14.5547 22.2189C14 21.758 13.4453 21.297 12.8906 20.8361C12.7671 20.6556 12.7514 20.4681 12.8437 20.2736C13.2676 19.8029 13.6739 19.3185 14.0625 18.8205C14.3155 18.4896 14.5968 18.4583 14.9062 18.7267C15 18.8986 15 19.0704 14.9062 19.2423C14.7422 19.4377 14.5781 19.6329 14.414 19.8283C16.1754 19.326 17.6207 18.3495 18.75 16.8986C19.6906 15.6089 20.2843 14.1714 20.5312 12.5861C20.6087 12.5439 20.679 12.4971 20.7422 12.4455Z" fill="#28303F"/>
</svg>
